<mxfile host="app.diagrams.net" agent="Mozilla/5.0 (Windows NT 10.0; Win64; x64) AppleWebKit/537.36 (KHTML, like Gecko) Chrome/136.0.0.0 Safari/537.36" version="27.0.8">
  <diagram name="Page-1" id="AlI4EncNNMdCl61SNeBN">
    <mxGraphModel dx="1042" dy="562" grid="1" gridSize="10" guides="1" tooltips="1" connect="1" arrows="1" fold="1" page="1" pageScale="1" pageWidth="827" pageHeight="1169" background="#ffffff" math="0" shadow="0">
      <root>
        <mxCell id="0" />
        <mxCell id="1" parent="0" />
        <mxCell id="_8ZAXlefnrJj5G8Nu_vt-1" value="&lt;font style=&quot;font-size: 18px;&quot;&gt;Memory unit&lt;/font&gt;&lt;div&gt;&lt;font style=&quot;font-size: 18px;&quot;&gt;65535 x 8&lt;/font&gt;&lt;/div&gt;" style="rounded=0;whiteSpace=wrap;html=1;fillStyle=auto;labelBackgroundColor=none;labelBorderColor=none;textShadow=0;fillColor=#182E3E;strokeColor=#FFFFFF;fontColor=light-dark(#FFFFFF,#121212);" parent="1" vertex="1">
          <mxGeometry x="329" y="120" width="210" height="130" as="geometry" />
        </mxCell>
        <mxCell id="_8ZAXlefnrJj5G8Nu_vt-2" value="" style="edgeStyle=orthogonalEdgeStyle;rounded=0;orthogonalLoop=1;jettySize=auto;html=1;labelBackgroundColor=none;fontColor=light-dark(#000000, #121212);labelBorderColor=none;textShadow=0;strokeColor=#23445D;" parent="1" edge="1">
          <mxGeometry relative="1" as="geometry">
            <Array as="points">
              <mxPoint x="670" y="335" />
              <mxPoint x="670" y="230" />
            </Array>
            <mxPoint x="620" y="335" as="sourcePoint" />
            <mxPoint x="539" y="230" as="targetPoint" />
          </mxGeometry>
        </mxCell>
        <mxCell id="_8ZAXlefnrJj5G8Nu_vt-3" value="Address" style="edgeLabel;html=1;align=center;verticalAlign=middle;resizable=0;points=[];labelBackgroundColor=none;rounded=0;labelBorderColor=none;textShadow=0;fontColor=light-dark(#000000, #121212);" parent="_8ZAXlefnrJj5G8Nu_vt-2" vertex="1" connectable="0">
          <mxGeometry x="0.4545" y="2" relative="1" as="geometry">
            <mxPoint x="22" y="7" as="offset" />
          </mxGeometry>
        </mxCell>
        <mxCell id="_8ZAXlefnrJj5G8Nu_vt-4" value="&lt;font style=&quot;font-size: 18px;&quot;&gt;MAR&lt;/font&gt;" style="rounded=0;whiteSpace=wrap;html=1;labelBackgroundColor=none;labelBorderColor=none;textShadow=0;fillColor=#182E3E;strokeColor=#FFFFFF;fontColor=light-dark(#FFFFFF,#121212);" parent="1" vertex="1">
          <mxGeometry x="360" y="300" width="260" height="50" as="geometry" />
        </mxCell>
        <mxCell id="_8ZAXlefnrJj5G8Nu_vt-8" style="edgeStyle=orthogonalEdgeStyle;rounded=0;orthogonalLoop=1;jettySize=auto;html=1;entryX=0.5;entryY=0;entryDx=0;entryDy=0;labelBorderColor=none;textShadow=0;labelBackgroundColor=none;fontColor=light-dark(#000000, #121212);strokeColor=#23445D;" parent="1" source="_8ZAXlefnrJj5G8Nu_vt-12" target="_8ZAXlefnrJj5G8Nu_vt-77" edge="1">
          <mxGeometry relative="1" as="geometry" />
        </mxCell>
        <mxCell id="_8ZAXlefnrJj5G8Nu_vt-9" style="edgeStyle=orthogonalEdgeStyle;rounded=0;orthogonalLoop=1;jettySize=auto;html=1;entryX=0.5;entryY=0;entryDx=0;entryDy=0;labelBorderColor=none;textShadow=0;labelBackgroundColor=none;fontColor=light-dark(#000000, #121212);strokeColor=#23445D;" parent="1" source="_8ZAXlefnrJj5G8Nu_vt-12" target="_8ZAXlefnrJj5G8Nu_vt-76" edge="1">
          <mxGeometry relative="1" as="geometry">
            <Array as="points">
              <mxPoint x="340" y="885" />
              <mxPoint x="230" y="885" />
              <mxPoint x="230" y="925" />
            </Array>
          </mxGeometry>
        </mxCell>
        <mxCell id="_8ZAXlefnrJj5G8Nu_vt-224" style="edgeStyle=orthogonalEdgeStyle;rounded=0;orthogonalLoop=1;jettySize=auto;html=1;exitX=0.75;exitY=1;exitDx=0;exitDy=0;entryX=0.5;entryY=0;entryDx=0;entryDy=0;labelBorderColor=none;textShadow=0;labelBackgroundColor=none;fontColor=light-dark(#000000, #121212);strokeColor=#23445D;" parent="1" source="_8ZAXlefnrJj5G8Nu_vt-12" target="_8ZAXlefnrJj5G8Nu_vt-75" edge="1">
          <mxGeometry relative="1" as="geometry" />
        </mxCell>
        <mxCell id="_8ZAXlefnrJj5G8Nu_vt-225" style="edgeStyle=orthogonalEdgeStyle;rounded=0;orthogonalLoop=1;jettySize=auto;html=1;entryX=0.25;entryY=1;entryDx=0;entryDy=0;labelBorderColor=none;textShadow=0;labelBackgroundColor=none;fontColor=light-dark(#000000, #121212);strokeColor=#23445D;exitX=0.5;exitY=0;exitDx=0;exitDy=0;" parent="1" source="_8ZAXlefnrJj5G8Nu_vt-12" target="_8ZAXlefnrJj5G8Nu_vt-191" edge="1">
          <mxGeometry relative="1" as="geometry">
            <mxPoint x="400" y="910" as="sourcePoint" />
            <mxPoint x="365" y="820" as="targetPoint" />
          </mxGeometry>
        </mxCell>
        <mxCell id="_8ZAXlefnrJj5G8Nu_vt-234" style="edgeStyle=orthogonalEdgeStyle;rounded=0;orthogonalLoop=1;jettySize=auto;html=1;exitX=0.25;exitY=0;exitDx=0;exitDy=0;entryX=1;entryY=0.5;entryDx=0;entryDy=0;strokeColor=#23445D;" parent="1" source="_8ZAXlefnrJj5G8Nu_vt-12" target="_8ZAXlefnrJj5G8Nu_vt-233" edge="1">
          <mxGeometry relative="1" as="geometry" />
        </mxCell>
        <mxCell id="_8ZAXlefnrJj5G8Nu_vt-12" value="&lt;font style=&quot;font-size: 18px;&quot;&gt;IR&lt;/font&gt;" style="rounded=0;whiteSpace=wrap;html=1;labelBackgroundColor=none;labelBorderColor=none;textShadow=0;fillColor=#182E3E;strokeColor=#FFFFFF;fontColor=light-dark(#FFFFFF,#121212);" parent="1" vertex="1">
          <mxGeometry x="279" y="817.5" width="260" height="50" as="geometry" />
        </mxCell>
        <mxCell id="_8ZAXlefnrJj5G8Nu_vt-208" style="edgeStyle=orthogonalEdgeStyle;rounded=0;orthogonalLoop=1;jettySize=auto;html=1;exitX=0.75;exitY=1;exitDx=0;exitDy=0;entryX=0;entryY=0.5;entryDx=0;entryDy=0;labelBorderColor=none;textShadow=0;labelBackgroundColor=none;fontColor=light-dark(#000000, #121212);strokeColor=#23445D;" parent="1" source="_8ZAXlefnrJj5G8Nu_vt-26" target="_8ZAXlefnrJj5G8Nu_vt-57" edge="1">
          <mxGeometry relative="1" as="geometry" />
        </mxCell>
        <mxCell id="_8ZAXlefnrJj5G8Nu_vt-209" style="edgeStyle=orthogonalEdgeStyle;rounded=0;orthogonalLoop=1;jettySize=auto;html=1;exitX=0.5;exitY=1;exitDx=0;exitDy=0;entryX=0;entryY=0.5;entryDx=0;entryDy=0;labelBorderColor=none;textShadow=0;labelBackgroundColor=none;fontColor=light-dark(#000000, #121212);strokeColor=#23445D;" parent="1" source="_8ZAXlefnrJj5G8Nu_vt-26" target="_8ZAXlefnrJj5G8Nu_vt-56" edge="1">
          <mxGeometry relative="1" as="geometry" />
        </mxCell>
        <mxCell id="_8ZAXlefnrJj5G8Nu_vt-210" style="edgeStyle=orthogonalEdgeStyle;rounded=0;orthogonalLoop=1;jettySize=auto;html=1;exitX=0.25;exitY=1;exitDx=0;exitDy=0;entryX=0;entryY=0.5;entryDx=0;entryDy=0;labelBorderColor=none;textShadow=0;labelBackgroundColor=none;fontColor=light-dark(#000000, #121212);strokeColor=#23445D;" parent="1" source="_8ZAXlefnrJj5G8Nu_vt-26" target="_8ZAXlefnrJj5G8Nu_vt-55" edge="1">
          <mxGeometry relative="1" as="geometry" />
        </mxCell>
        <mxCell id="_8ZAXlefnrJj5G8Nu_vt-26" value="&lt;font style=&quot;font-size: 16px;&quot;&gt;ALU&lt;/font&gt;" style="whiteSpace=wrap;html=1;aspect=fixed;labelBackgroundColor=none;rounded=0;labelBorderColor=none;textShadow=0;fillColor=#182E3E;strokeColor=#FFFFFF;fontColor=light-dark(#FFFFFF,#121212);" parent="1" vertex="1">
          <mxGeometry x="650" y="835" width="86" height="86" as="geometry" />
        </mxCell>
        <mxCell id="_8ZAXlefnrJj5G8Nu_vt-29" value="" style="html=1;points=[[0,0,0,0,5],[0,1,0,0,-5],[1,0,0,0,5],[1,1,0,0,-5]];perimeter=orthogonalPerimeter;outlineConnect=0;targetShapes=umlLifeline;portConstraint=eastwest;newEdgeStyle={&quot;curved&quot;:0,&quot;rounded&quot;:0};labelBackgroundColor=none;rounded=0;labelBorderColor=none;textShadow=0;fillColor=#182E3E;strokeColor=#FFFFFF;fontColor=light-dark(#000000, #121212);" parent="1" vertex="1">
          <mxGeometry x="950" y="80" width="10" height="1290" as="geometry" />
        </mxCell>
        <mxCell id="_8ZAXlefnrJj5G8Nu_vt-30" value="" style="html=1;points=[[0,0,0,0,5],[0,1,0,0,-5],[1,0,0,0,5],[1,1,0,0,-5]];perimeter=orthogonalPerimeter;outlineConnect=0;targetShapes=umlLifeline;portConstraint=eastwest;newEdgeStyle={&quot;curved&quot;:0,&quot;rounded&quot;:0};rotation=90;labelBackgroundColor=none;rounded=0;labelBorderColor=none;textShadow=0;fillColor=#182E3E;strokeColor=#FFFFFF;fontColor=light-dark(#000000, #121212);" parent="1" vertex="1">
          <mxGeometry x="528.37" y="939.3800000000001" width="10" height="846.25" as="geometry" />
        </mxCell>
        <mxCell id="_8ZAXlefnrJj5G8Nu_vt-31" value="" style="html=1;points=[[0,0,0,0,5],[0,1,0,0,-5],[1,0,0,0,5],[1,1,0,0,-5]];perimeter=orthogonalPerimeter;outlineConnect=0;targetShapes=umlLifeline;portConstraint=eastwest;newEdgeStyle={&quot;curved&quot;:0,&quot;rounded&quot;:0};labelBackgroundColor=none;rounded=0;labelBorderColor=none;textShadow=0;fillColor=#182E3E;strokeColor=#FFFFFF;fontColor=light-dark(#000000, #121212);" parent="1" vertex="1">
          <mxGeometry x="110" y="85" width="10" height="1285" as="geometry" />
        </mxCell>
        <mxCell id="_8ZAXlefnrJj5G8Nu_vt-35" value="" style="html=1;shadow=0;dashed=0;align=center;verticalAlign=middle;shape=mxgraph.arrows2.arrow;dy=0.6;dx=40;notch=0;labelBackgroundColor=none;rounded=0;labelBorderColor=none;textShadow=0;fillColor=#182E3E;strokeColor=#FFFFFF;fontColor=light-dark(#000000, #121212);" parent="1" vertex="1">
          <mxGeometry x="540" y="167.5" width="410" height="35" as="geometry" />
        </mxCell>
        <mxCell id="_8ZAXlefnrJj5G8Nu_vt-36" value="" style="html=1;shadow=0;dashed=0;align=center;verticalAlign=middle;shape=mxgraph.arrows2.arrow;dy=0.6;dx=40;notch=0;textShadow=0;labelBackgroundColor=none;rounded=0;labelBorderColor=none;fillColor=#182E3E;strokeColor=#FFFFFF;fontColor=light-dark(#000000, #121212);" parent="1" vertex="1">
          <mxGeometry x="736" y="857.5" width="214" height="35" as="geometry" />
        </mxCell>
        <mxCell id="_8ZAXlefnrJj5G8Nu_vt-37" value="" style="html=1;shadow=0;dashed=0;align=center;verticalAlign=middle;shape=mxgraph.arrows2.arrow;dy=0.6;dx=40;notch=0;labelBackgroundColor=none;rounded=0;labelBorderColor=none;textShadow=0;fillColor=#182E3E;strokeColor=#FFFFFF;fontColor=light-dark(#000000, #121212);" parent="1" vertex="1">
          <mxGeometry x="120" y="167.5" width="210" height="35" as="geometry" />
        </mxCell>
        <mxCell id="_8ZAXlefnrJj5G8Nu_vt-38" value="" style="html=1;shadow=0;dashed=0;align=center;verticalAlign=middle;shape=mxgraph.arrows2.arrow;dy=0.6;dx=40;notch=0;labelBackgroundColor=none;rounded=0;labelBorderColor=none;textShadow=0;fillColor=#182E3E;strokeColor=#FFFFFF;fontColor=light-dark(#000000, #121212);" parent="1" vertex="1">
          <mxGeometry x="120" y="307.5" width="240" height="35" as="geometry" />
        </mxCell>
        <mxCell id="_8ZAXlefnrJj5G8Nu_vt-40" value="" style="html=1;shadow=0;dashed=0;align=center;verticalAlign=middle;shape=mxgraph.arrows2.arrow;dy=0.6;dx=40;notch=0;labelBackgroundColor=none;rounded=0;labelBorderColor=none;textShadow=0;fillColor=#182E3E;strokeColor=#FFFFFF;fontColor=light-dark(#000000, #121212);" parent="1" vertex="1">
          <mxGeometry x="120" y="825" width="160" height="35" as="geometry" />
        </mxCell>
        <mxCell id="_8ZAXlefnrJj5G8Nu_vt-46" value="0" style="text;html=1;align=center;verticalAlign=middle;resizable=0;points=[];autosize=1;strokeColor=none;fillColor=none;labelBackgroundColor=none;rounded=0;labelBorderColor=none;textShadow=0;fontColor=light-dark(#000000, #121212);" parent="1" vertex="1">
          <mxGeometry x="885" y="150" width="30" height="30" as="geometry" />
        </mxCell>
        <mxCell id="_8ZAXlefnrJj5G8Nu_vt-51" value="S1" style="text;html=1;align=center;verticalAlign=middle;resizable=0;points=[];autosize=1;strokeColor=none;fillColor=none;labelBackgroundColor=none;rounded=0;labelBorderColor=none;textShadow=0;fontColor=light-dark(#000000, #121212);" parent="1" vertex="1">
          <mxGeometry x="805" y="40" width="40" height="30" as="geometry" />
        </mxCell>
        <mxCell id="_8ZAXlefnrJj5G8Nu_vt-52" style="edgeStyle=orthogonalEdgeStyle;rounded=0;orthogonalLoop=1;jettySize=auto;html=1;labelBorderColor=none;textShadow=0;labelBackgroundColor=none;fontColor=light-dark(#000000, #121212);strokeColor=#23445D;" parent="1" source="_8ZAXlefnrJj5G8Nu_vt-53" target="_8ZAXlefnrJj5G8Nu_vt-74" edge="1">
          <mxGeometry relative="1" as="geometry" />
        </mxCell>
        <mxCell id="_8ZAXlefnrJj5G8Nu_vt-53" value="S2" style="text;html=1;align=center;verticalAlign=middle;resizable=0;points=[];autosize=1;strokeColor=none;fillColor=none;labelBackgroundColor=none;rounded=0;labelBorderColor=none;textShadow=0;fontColor=light-dark(#000000, #121212);" parent="1" vertex="1">
          <mxGeometry x="805" y="70" width="40" height="30" as="geometry" />
        </mxCell>
        <mxCell id="_8ZAXlefnrJj5G8Nu_vt-54" value="S3" style="text;html=1;align=center;verticalAlign=middle;resizable=0;points=[];autosize=1;strokeColor=none;fillColor=none;labelBackgroundColor=none;rounded=0;labelBorderColor=none;textShadow=0;fontColor=light-dark(#000000, #121212);" parent="1" vertex="1">
          <mxGeometry x="805" y="100" width="40" height="30" as="geometry" />
        </mxCell>
        <mxCell id="_8ZAXlefnrJj5G8Nu_vt-55" value="&lt;font style=&quot;font-size: 16px;&quot;&gt;P&lt;/font&gt;" style="whiteSpace=wrap;html=1;aspect=fixed;labelBackgroundColor=none;rounded=0;labelBorderColor=none;textShadow=0;fillColor=#182E3E;strokeColor=#FFFFFF;fontColor=light-dark(#FFFFFF,#121212);" parent="1" vertex="1">
          <mxGeometry x="787" y="975" width="40" height="40" as="geometry" />
        </mxCell>
        <mxCell id="_8ZAXlefnrJj5G8Nu_vt-56" value="&lt;font style=&quot;font-size: 16px;&quot;&gt;N&lt;/font&gt;" style="whiteSpace=wrap;html=1;aspect=fixed;labelBackgroundColor=none;rounded=0;labelBorderColor=none;textShadow=0;fillColor=#182E3E;strokeColor=#FFFFFF;fontColor=light-dark(#FFFFFF,#121212);" parent="1" vertex="1">
          <mxGeometry x="787" y="935" width="40" height="40" as="geometry" />
        </mxCell>
        <mxCell id="_8ZAXlefnrJj5G8Nu_vt-57" value="&lt;span style=&quot;font-size: 16px;&quot;&gt;Z&lt;/span&gt;" style="whiteSpace=wrap;html=1;aspect=fixed;labelBackgroundColor=none;rounded=0;labelBorderColor=none;textShadow=0;fillColor=#182E3E;strokeColor=#FFFFFF;fontColor=light-dark(#FFFFFF,#121212);" parent="1" vertex="1">
          <mxGeometry x="787" y="895" width="40" height="40" as="geometry" />
        </mxCell>
        <mxCell id="_8ZAXlefnrJj5G8Nu_vt-58" value="&lt;font style=&quot;font-size: 16px;&quot;&gt;BUS&lt;/font&gt;" style="text;html=1;align=center;verticalAlign=middle;resizable=0;points=[];autosize=1;strokeColor=none;fillColor=none;labelBackgroundColor=none;labelBorderColor=none;textShadow=0;fontColor=light-dark(#000000, #121212);" parent="1" vertex="1">
          <mxGeometry x="650" y="1336" width="60" height="30" as="geometry" />
        </mxCell>
        <mxCell id="_8ZAXlefnrJj5G8Nu_vt-59" value="" style="endArrow=none;html=1;rounded=0;labelBorderColor=none;textShadow=0;labelBackgroundColor=none;fontColor=light-dark(#000000, #121212);strokeColor=#23445D;" parent="1" edge="1">
          <mxGeometry width="50" height="50" relative="1" as="geometry">
            <mxPoint x="40" y="10" as="sourcePoint" />
            <mxPoint x="1030" y="10" as="targetPoint" />
          </mxGeometry>
        </mxCell>
        <mxCell id="_8ZAXlefnrJj5G8Nu_vt-60" value="" style="endArrow=none;html=1;rounded=0;labelBorderColor=none;textShadow=0;labelBackgroundColor=none;fontColor=light-dark(#000000, #121212);strokeColor=#23445D;" parent="1" edge="1">
          <mxGeometry width="50" height="50" relative="1" as="geometry">
            <mxPoint x="1030" y="1440" as="sourcePoint" />
            <mxPoint x="1030" y="10" as="targetPoint" />
          </mxGeometry>
        </mxCell>
        <mxCell id="_8ZAXlefnrJj5G8Nu_vt-61" value="" style="endArrow=none;html=1;rounded=0;labelBorderColor=none;textShadow=0;labelBackgroundColor=none;fontColor=light-dark(#000000, #121212);strokeColor=#23445D;" parent="1" edge="1">
          <mxGeometry width="50" height="50" relative="1" as="geometry">
            <mxPoint x="29" y="1440" as="sourcePoint" />
            <mxPoint x="1029" y="1440" as="targetPoint" />
          </mxGeometry>
        </mxCell>
        <mxCell id="_8ZAXlefnrJj5G8Nu_vt-62" value="" style="endArrow=none;html=1;rounded=0;labelBorderColor=none;textShadow=0;labelBackgroundColor=none;fontColor=light-dark(#000000, #121212);strokeColor=#23445D;" parent="1" edge="1">
          <mxGeometry width="50" height="50" relative="1" as="geometry">
            <mxPoint x="40" y="1440" as="sourcePoint" />
            <mxPoint x="40" as="targetPoint" />
          </mxGeometry>
        </mxCell>
        <mxCell id="_8ZAXlefnrJj5G8Nu_vt-63" value="&lt;span style=&quot;font-size: 18px;&quot;&gt;INPR&lt;/span&gt;" style="rounded=0;whiteSpace=wrap;html=1;labelBackgroundColor=none;labelBorderColor=none;textShadow=0;fillColor=#182E3E;strokeColor=#FFFFFF;fontColor=light-dark(#FFFFFF,#121212);" parent="1" vertex="1">
          <mxGeometry x="304" y="1035" width="260" height="50" as="geometry" />
        </mxCell>
        <mxCell id="_8ZAXlefnrJj5G8Nu_vt-64" style="edgeStyle=orthogonalEdgeStyle;rounded=0;orthogonalLoop=1;jettySize=auto;html=1;entryX=0.5;entryY=1;entryDx=0;entryDy=0;labelBorderColor=none;textShadow=0;labelBackgroundColor=none;fontColor=light-dark(#000000, #121212);strokeColor=#23445D;" parent="1" source="_8ZAXlefnrJj5G8Nu_vt-65" target="_8ZAXlefnrJj5G8Nu_vt-71" edge="1">
          <mxGeometry relative="1" as="geometry">
            <Array as="points">
              <mxPoint x="440" y="1245" />
              <mxPoint x="730" y="1245" />
            </Array>
          </mxGeometry>
        </mxCell>
        <mxCell id="_8ZAXlefnrJj5G8Nu_vt-65" value="&lt;font style=&quot;font-size: 18px;&quot;&gt;OUTR&lt;/font&gt;" style="rounded=0;whiteSpace=wrap;html=1;labelBackgroundColor=none;labelBorderColor=none;textShadow=0;fillColor=#182E3E;strokeColor=#FFFFFF;fontColor=light-dark(#FFFFFF,#121212);" parent="1" vertex="1">
          <mxGeometry x="304" y="1270" width="260" height="50" as="geometry" />
        </mxCell>
        <mxCell id="_8ZAXlefnrJj5G8Nu_vt-66" value="" style="html=1;shadow=0;dashed=0;align=center;verticalAlign=middle;shape=mxgraph.arrows2.arrow;dy=0.6;dx=40;notch=0;labelBackgroundColor=none;rounded=0;labelBorderColor=none;textShadow=0;fillColor=#182E3E;strokeColor=#FFFFFF;fontColor=light-dark(#000000, #121212);" parent="1" vertex="1">
          <mxGeometry x="564" y="1042.5" width="386" height="35" as="geometry" />
        </mxCell>
        <mxCell id="_8ZAXlefnrJj5G8Nu_vt-67" value="" style="html=1;shadow=0;dashed=0;align=center;verticalAlign=middle;shape=mxgraph.arrows2.arrow;dy=0.6;dx=40;notch=0;labelBackgroundColor=none;rounded=0;labelBorderColor=none;textShadow=0;fillColor=#182E3E;strokeColor=#FFFFFF;fontColor=light-dark(#000000, #121212);" parent="1" vertex="1">
          <mxGeometry x="120" y="1042.5" width="184" height="35" as="geometry" />
        </mxCell>
        <mxCell id="_8ZAXlefnrJj5G8Nu_vt-68" value="" style="html=1;shadow=0;dashed=0;align=center;verticalAlign=middle;shape=mxgraph.arrows2.arrow;dy=0.6;dx=40;notch=0;labelBackgroundColor=none;rounded=0;labelBorderColor=none;textShadow=0;fillColor=#182E3E;strokeColor=#FFFFFF;fontColor=light-dark(#000000, #121212);" parent="1" vertex="1">
          <mxGeometry x="120" y="1277.5" width="184" height="35" as="geometry" />
        </mxCell>
        <mxCell id="_8ZAXlefnrJj5G8Nu_vt-70" style="edgeStyle=orthogonalEdgeStyle;rounded=0;orthogonalLoop=1;jettySize=auto;html=1;entryX=0.5;entryY=1;entryDx=0;entryDy=0;labelBorderColor=none;textShadow=0;labelBackgroundColor=none;fontColor=light-dark(#000000, #121212);strokeColor=#23445D;" parent="1" source="_8ZAXlefnrJj5G8Nu_vt-71" target="_8ZAXlefnrJj5G8Nu_vt-63" edge="1">
          <mxGeometry relative="1" as="geometry">
            <Array as="points">
              <mxPoint x="434" y="1115" />
            </Array>
          </mxGeometry>
        </mxCell>
        <mxCell id="_8ZAXlefnrJj5G8Nu_vt-71" value="&lt;font style=&quot;font-size: 15px;&quot;&gt;Interface Circuit&lt;/font&gt;" style="ellipse;whiteSpace=wrap;html=1;labelBorderColor=none;textShadow=0;labelBackgroundColor=none;fillColor=#182E3E;strokeColor=#FFFFFF;fontColor=light-dark(#FFFFFF,#121212);" parent="1" vertex="1">
          <mxGeometry x="665" y="1125" width="130" height="105" as="geometry" />
        </mxCell>
        <mxCell id="_8ZAXlefnrJj5G8Nu_vt-72" value="" style="html=1;shadow=0;dashed=0;align=center;verticalAlign=middle;shape=mxgraph.arrows2.arrow;dy=0.6;dx=40;notch=0;labelBackgroundColor=none;rounded=0;labelBorderColor=none;textShadow=0;fillColor=#182E3E;strokeColor=#FFFFFF;fontColor=light-dark(#000000, #121212);" parent="1" vertex="1">
          <mxGeometry x="564" y="1277.5" width="386" height="35" as="geometry" />
        </mxCell>
        <mxCell id="_8ZAXlefnrJj5G8Nu_vt-74" value="&lt;font style=&quot;font-size: 18px; color: rgb(255, 255, 255);&quot;&gt;BUS&lt;/font&gt;" style="shape=cylinder3;whiteSpace=wrap;html=1;boundedLbl=1;backgroundOutline=1;size=15;labelBorderColor=none;textShadow=0;labelBackgroundColor=none;fillColor=#182E3E;strokeColor=#FFFFFF;fontColor=light-dark(#000000, #121212);" parent="1" vertex="1">
          <mxGeometry x="905" y="30" width="103.31" height="110" as="geometry" />
        </mxCell>
        <mxCell id="_8ZAXlefnrJj5G8Nu_vt-75" value="&lt;span style=&quot;font-size: 18px;&quot;&gt;OPCODE&lt;/span&gt;" style="rounded=0;whiteSpace=wrap;html=1;labelBackgroundColor=none;labelBorderColor=none;textShadow=0;fillColor=#182E3E;strokeColor=#FFFFFF;fontColor=light-dark(#FFFFFF,#121212);" parent="1" vertex="1">
          <mxGeometry x="500" y="921" width="130" height="50" as="geometry" />
        </mxCell>
        <mxCell id="_8ZAXlefnrJj5G8Nu_vt-76" value="&lt;span style=&quot;font-size: 18px;&quot;&gt;FUNCT3&lt;/span&gt;" style="rounded=0;whiteSpace=wrap;html=1;labelBackgroundColor=none;labelBorderColor=none;textShadow=0;fillColor=#182E3E;strokeColor=#FFFFFF;fontColor=light-dark(#FFFFFF,#121212);" parent="1" vertex="1">
          <mxGeometry x="160" y="925" width="130" height="50" as="geometry" />
        </mxCell>
        <mxCell id="_8ZAXlefnrJj5G8Nu_vt-77" value="&lt;span style=&quot;font-size: 18px;&quot;&gt;FUNCT7&lt;/span&gt;" style="rounded=0;whiteSpace=wrap;html=1;labelBackgroundColor=none;labelBorderColor=none;textShadow=0;fillColor=#182E3E;strokeColor=#FFFFFF;fontColor=light-dark(#FFFFFF,#121212);" parent="1" vertex="1">
          <mxGeometry x="344" y="921" width="130" height="50" as="geometry" />
        </mxCell>
        <mxCell id="_8ZAXlefnrJj5G8Nu_vt-80" style="edgeStyle=orthogonalEdgeStyle;rounded=0;orthogonalLoop=1;jettySize=auto;html=1;entryX=-0.007;entryY=0.228;entryDx=0;entryDy=0;entryPerimeter=0;labelBorderColor=none;textShadow=0;labelBackgroundColor=none;fontColor=light-dark(#000000, #121212);strokeColor=#23445D;" parent="1" source="_8ZAXlefnrJj5G8Nu_vt-51" target="_8ZAXlefnrJj5G8Nu_vt-74" edge="1">
          <mxGeometry relative="1" as="geometry" />
        </mxCell>
        <mxCell id="_8ZAXlefnrJj5G8Nu_vt-81" style="edgeStyle=orthogonalEdgeStyle;rounded=0;orthogonalLoop=1;jettySize=auto;html=1;entryX=-0.001;entryY=0.765;entryDx=0;entryDy=0;entryPerimeter=0;labelBorderColor=none;textShadow=0;labelBackgroundColor=none;fontColor=light-dark(#000000, #121212);strokeColor=#23445D;" parent="1" source="_8ZAXlefnrJj5G8Nu_vt-54" target="_8ZAXlefnrJj5G8Nu_vt-74" edge="1">
          <mxGeometry relative="1" as="geometry" />
        </mxCell>
        <mxCell id="_8ZAXlefnrJj5G8Nu_vt-82" style="edgeStyle=orthogonalEdgeStyle;rounded=0;orthogonalLoop=1;jettySize=auto;html=1;labelBorderColor=none;textShadow=0;labelBackgroundColor=none;fontColor=light-dark(#000000, #121212);strokeColor=#23445D;" parent="1" edge="1">
          <mxGeometry relative="1" as="geometry">
            <mxPoint x="254.88" y="1145.0100000000002" as="targetPoint" />
            <mxPoint x="254.87999999999988" y="1175.0100000000002" as="sourcePoint" />
          </mxGeometry>
        </mxCell>
        <mxCell id="_8ZAXlefnrJj5G8Nu_vt-83" style="edgeStyle=orthogonalEdgeStyle;rounded=0;orthogonalLoop=1;jettySize=auto;html=1;labelBorderColor=none;textShadow=0;labelBackgroundColor=none;fontColor=light-dark(#000000, #121212);strokeColor=#23445D;" parent="1" edge="1">
          <mxGeometry relative="1" as="geometry">
            <mxPoint x="199" y="1145.0100000000002" as="targetPoint" />
            <mxPoint x="198.9999999999999" y="1175.0100000000002" as="sourcePoint" />
          </mxGeometry>
        </mxCell>
        <mxCell id="_8ZAXlefnrJj5G8Nu_vt-84" style="edgeStyle=orthogonalEdgeStyle;rounded=0;orthogonalLoop=1;jettySize=auto;html=1;exitX=0.5;exitY=0;exitDx=0;exitDy=0;labelBorderColor=none;textShadow=0;labelBackgroundColor=none;fontColor=light-dark(#000000, #121212);strokeColor=#23445D;" parent="1" edge="1">
          <mxGeometry relative="1" as="geometry">
            <mxPoint x="310.0025287356322" y="1145.0100000000002" as="targetPoint" />
            <mxPoint x="310.05999999999995" y="1175.0100000000002" as="sourcePoint" />
          </mxGeometry>
        </mxCell>
        <mxCell id="_8ZAXlefnrJj5G8Nu_vt-85" value="&lt;span style=&quot;font-size: 18px;&quot;&gt;3-bit&lt;/span&gt;&lt;div&gt;&lt;span style=&quot;font-size: 18px;&quot;&gt;sequence counter&lt;/span&gt;&lt;/div&gt;&lt;div&gt;&lt;span style=&quot;font-size: 18px;&quot;&gt;(SC)&lt;/span&gt;&lt;/div&gt;" style="rounded=0;whiteSpace=wrap;html=1;fillStyle=auto;labelBackgroundColor=none;labelBorderColor=none;textShadow=0;fillColor=#182E3E;strokeColor=#FFFFFF;fontColor=light-dark(#FFFFFF,#121212);" parent="1" vertex="1">
          <mxGeometry x="160" y="1175.0100000000002" width="190" height="73.75" as="geometry" />
        </mxCell>
        <mxCell id="_8ZAXlefnrJj5G8Nu_vt-86" style="edgeStyle=orthogonalEdgeStyle;rounded=0;orthogonalLoop=1;jettySize=auto;html=1;entryX=1;entryY=0.25;entryDx=0;entryDy=0;labelBorderColor=none;textShadow=0;labelBackgroundColor=none;fontColor=light-dark(#000000, #121212);strokeColor=#23445D;" parent="1" source="_8ZAXlefnrJj5G8Nu_vt-87" target="_8ZAXlefnrJj5G8Nu_vt-85" edge="1">
          <mxGeometry relative="1" as="geometry" />
        </mxCell>
        <mxCell id="_8ZAXlefnrJj5G8Nu_vt-87" value="Increment" style="text;html=1;align=center;verticalAlign=middle;resizable=0;points=[];autosize=1;strokeColor=none;fillColor=none;labelBorderColor=none;textShadow=0;labelBackgroundColor=none;fontColor=light-dark(#000000, #121212);" parent="1" vertex="1">
          <mxGeometry x="390" y="1166.88" width="80" height="30" as="geometry" />
        </mxCell>
        <mxCell id="_8ZAXlefnrJj5G8Nu_vt-88" style="edgeStyle=orthogonalEdgeStyle;rounded=0;orthogonalLoop=1;jettySize=auto;html=1;entryX=1;entryY=0.5;entryDx=0;entryDy=0;labelBorderColor=none;textShadow=0;labelBackgroundColor=none;fontColor=light-dark(#000000, #121212);strokeColor=#23445D;" parent="1" source="_8ZAXlefnrJj5G8Nu_vt-89" target="_8ZAXlefnrJj5G8Nu_vt-85" edge="1">
          <mxGeometry relative="1" as="geometry" />
        </mxCell>
        <mxCell id="_8ZAXlefnrJj5G8Nu_vt-89" value="Clear" style="text;html=1;align=center;verticalAlign=middle;resizable=0;points=[];autosize=1;strokeColor=none;fillColor=none;labelBorderColor=none;textShadow=0;labelBackgroundColor=none;fontColor=light-dark(#000000, #121212);" parent="1" vertex="1">
          <mxGeometry x="390" y="1196.88" width="50" height="30" as="geometry" />
        </mxCell>
        <mxCell id="_8ZAXlefnrJj5G8Nu_vt-90" style="edgeStyle=orthogonalEdgeStyle;rounded=0;orthogonalLoop=1;jettySize=auto;html=1;entryX=1;entryY=0.75;entryDx=0;entryDy=0;labelBorderColor=none;textShadow=0;labelBackgroundColor=none;fontColor=light-dark(#000000, #121212);strokeColor=#23445D;" parent="1" source="_8ZAXlefnrJj5G8Nu_vt-91" target="_8ZAXlefnrJj5G8Nu_vt-85" edge="1">
          <mxGeometry relative="1" as="geometry" />
        </mxCell>
        <mxCell id="_8ZAXlefnrJj5G8Nu_vt-91" value="Clock" style="text;html=1;align=center;verticalAlign=middle;resizable=0;points=[];autosize=1;strokeColor=none;fillColor=none;labelBorderColor=none;textShadow=0;labelBackgroundColor=none;fontColor=light-dark(#000000, #121212);" parent="1" vertex="1">
          <mxGeometry x="390" y="1226.88" width="50" height="30" as="geometry" />
        </mxCell>
        <mxCell id="_8ZAXlefnrJj5G8Nu_vt-92" value="&lt;span style=&quot;font-size: 18px;&quot;&gt;decoder 3x8&lt;/span&gt;" style="rounded=0;whiteSpace=wrap;html=1;labelBackgroundColor=none;labelBorderColor=none;textShadow=0;fillColor=#182E3E;strokeColor=#FFFFFF;fontColor=light-dark(#FFFFFF,#121212);" parent="1" vertex="1">
          <mxGeometry x="160" y="1105" width="190" height="40" as="geometry" />
        </mxCell>
        <mxCell id="_8ZAXlefnrJj5G8Nu_vt-192" style="edgeStyle=orthogonalEdgeStyle;shape=flexArrow;rounded=0;orthogonalLoop=1;jettySize=auto;html=1;entryX=0.25;entryY=1;entryDx=0;entryDy=0;labelBorderColor=none;textShadow=0;labelBackgroundColor=none;fontColor=light-dark(#000000, #121212);strokeColor=#23445D;exitX=1;exitY=0.5;exitDx=0;exitDy=0;" parent="1" source="_8ZAXlefnrJj5G8Nu_vt-166" target="_8ZAXlefnrJj5G8Nu_vt-187" edge="1">
          <mxGeometry relative="1" as="geometry">
            <mxPoint x="560" y="437.5" as="sourcePoint" />
            <mxPoint x="780" y="732.5" as="targetPoint" />
            <Array as="points">
              <mxPoint x="780" y="495" />
            </Array>
          </mxGeometry>
        </mxCell>
        <mxCell id="_8ZAXlefnrJj5G8Nu_vt-193" style="edgeStyle=orthogonalEdgeStyle;shape=flexArrow;rounded=0;orthogonalLoop=1;jettySize=auto;html=1;entryX=0.25;entryY=1;entryDx=0;entryDy=0;labelBorderColor=none;textShadow=0;labelBackgroundColor=none;fontColor=light-dark(#000000, #121212);strokeColor=#23445D;" parent="1" source="_8ZAXlefnrJj5G8Nu_vt-166" target="_8ZAXlefnrJj5G8Nu_vt-188" edge="1">
          <mxGeometry relative="1" as="geometry">
            <Array as="points">
              <mxPoint x="654" y="530" />
            </Array>
          </mxGeometry>
        </mxCell>
        <mxCell id="_8ZAXlefnrJj5G8Nu_vt-166" value="&lt;div style=&quot;line-height: 150%;&quot;&gt;&lt;span style=&quot;font-size: 18px; line-height: 150%;&quot;&gt;General Registers Unit&lt;/span&gt;&lt;div&gt;&lt;span style=&quot;font-size: 18px; line-height: 150%;&quot;&gt;x32&lt;/span&gt;&lt;/div&gt;&lt;/div&gt;" style="rounded=0;whiteSpace=wrap;html=1;fillStyle=auto;labelBackgroundColor=none;labelBorderColor=none;textShadow=0;fillColor=#182E3E;strokeColor=#FFFFFF;fontColor=light-dark(#FFFFFF,#121212);" parent="1" vertex="1">
          <mxGeometry x="299" y="380" width="261" height="230" as="geometry" />
        </mxCell>
        <mxCell id="_8ZAXlefnrJj5G8Nu_vt-181" style="edgeStyle=orthogonalEdgeStyle;shape=flexArrow;rounded=0;orthogonalLoop=1;jettySize=auto;html=1;entryX=-0.005;entryY=0.731;entryDx=0;entryDy=0;entryPerimeter=0;labelBorderColor=none;textShadow=0;labelBackgroundColor=none;fontColor=light-dark(#000000, #121212);strokeColor=#23445D;" parent="1" source="_8ZAXlefnrJj5G8Nu_vt-167" target="_8ZAXlefnrJj5G8Nu_vt-166" edge="1">
          <mxGeometry relative="1" as="geometry">
            <mxPoint x="290" y="570" as="targetPoint" />
          </mxGeometry>
        </mxCell>
        <mxCell id="_8ZAXlefnrJj5G8Nu_vt-167" value="" style="shape=trapezoid;perimeter=trapezoidPerimeter;whiteSpace=wrap;html=1;fixedSize=1;rotation=-90;labelBackgroundColor=none;rounded=0;labelBorderColor=none;textShadow=0;fillColor=#182E3E;strokeColor=#FFFFFF;fontColor=light-dark(#000000, #121212);" parent="1" vertex="1">
          <mxGeometry x="110" y="590" width="187" height="50" as="geometry" />
        </mxCell>
        <mxCell id="_8ZAXlefnrJj5G8Nu_vt-168" value="" style="html=1;shadow=0;dashed=0;align=center;verticalAlign=middle;shape=mxgraph.arrows2.arrow;dy=0.6;dx=40;notch=0;labelBackgroundColor=none;rounded=0;labelBorderColor=none;textShadow=0;fillColor=#182E3E;strokeColor=#FFFFFF;fontColor=light-dark(#000000, #121212);" parent="1" vertex="1">
          <mxGeometry x="120" y="430" width="179" height="35" as="geometry" />
        </mxCell>
        <mxCell id="_8ZAXlefnrJj5G8Nu_vt-169" value="" style="endArrow=none;html=1;rounded=0;labelBorderColor=none;textShadow=0;labelBackgroundColor=none;fontColor=light-dark(#000000, #121212);strokeColor=#23445D;" parent="1" edge="1">
          <mxGeometry width="50" height="50" relative="1" as="geometry">
            <mxPoint x="180" y="465" as="sourcePoint" />
            <mxPoint x="220" y="432.5" as="targetPoint" />
          </mxGeometry>
        </mxCell>
        <mxCell id="_8ZAXlefnrJj5G8Nu_vt-170" value="x32" style="text;html=1;align=center;verticalAlign=middle;resizable=0;points=[];autosize=1;strokeColor=none;fillColor=none;labelBorderColor=none;textShadow=0;labelBackgroundColor=none;fontColor=light-dark(#000000, #121212);" parent="1" vertex="1">
          <mxGeometry x="174" y="421.25" width="40" height="30" as="geometry" />
        </mxCell>
        <mxCell id="_8ZAXlefnrJj5G8Nu_vt-171" value="VCC" style="text;html=1;align=center;verticalAlign=middle;resizable=0;points=[];autosize=1;strokeColor=none;fillColor=none;labelBorderColor=none;textShadow=0;labelBackgroundColor=none;fontColor=light-dark(#000000, #121212);" parent="1" vertex="1">
          <mxGeometry x="124" y="550" width="50" height="30" as="geometry" />
        </mxCell>
        <mxCell id="_8ZAXlefnrJj5G8Nu_vt-179" style="edgeStyle=orthogonalEdgeStyle;rounded=0;orthogonalLoop=1;jettySize=auto;html=1;entryX=0.5;entryY=0;entryDx=0;entryDy=0;labelBorderColor=none;textShadow=0;labelBackgroundColor=none;fontColor=light-dark(#000000, #121212);strokeColor=#23445D;" parent="1" source="_8ZAXlefnrJj5G8Nu_vt-171" target="_8ZAXlefnrJj5G8Nu_vt-167" edge="1">
          <mxGeometry relative="1" as="geometry">
            <mxPoint x="150" y="600" as="sourcePoint" />
            <Array as="points">
              <mxPoint x="150" y="615" />
            </Array>
          </mxGeometry>
        </mxCell>
        <mxCell id="_8ZAXlefnrJj5G8Nu_vt-182" value="&lt;font style=&quot;&quot;&gt;Load&lt;/font&gt;" style="text;html=1;align=center;verticalAlign=middle;resizable=0;points=[];autosize=1;strokeColor=none;fillColor=none;fontSize=13;fontStyle=0;labelBorderColor=none;textShadow=0;labelBackgroundColor=none;fontColor=light-dark(#FFFFFF,#121212);" parent="1" vertex="1">
          <mxGeometry x="299" y="530" width="50" height="30" as="geometry" />
        </mxCell>
        <mxCell id="_8ZAXlefnrJj5G8Nu_vt-185" value="x32" style="text;html=1;align=center;verticalAlign=middle;resizable=0;points=[];autosize=1;strokeColor=none;fillColor=none;labelBorderColor=none;textShadow=0;labelBackgroundColor=none;fontColor=light-dark(#000000, #121212);" parent="1" vertex="1">
          <mxGeometry x="260" y="570" width="40" height="30" as="geometry" />
        </mxCell>
        <mxCell id="_8ZAXlefnrJj5G8Nu_vt-197" style="edgeStyle=orthogonalEdgeStyle;shape=link;rounded=0;orthogonalLoop=1;jettySize=auto;html=1;labelBorderColor=none;textShadow=0;labelBackgroundColor=none;fontColor=light-dark(#000000, #121212);strokeColor=#23445D;" parent="1" source="_8ZAXlefnrJj5G8Nu_vt-187" edge="1">
          <mxGeometry relative="1" as="geometry">
            <mxPoint x="860" y="750" as="targetPoint" />
          </mxGeometry>
        </mxCell>
        <mxCell id="_8ZAXlefnrJj5G8Nu_vt-203" style="edgeStyle=orthogonalEdgeStyle;rounded=0;orthogonalLoop=1;jettySize=auto;html=1;entryX=0.75;entryY=0;entryDx=0;entryDy=0;labelBorderColor=none;textShadow=0;labelBackgroundColor=none;fontColor=light-dark(#000000, #121212);strokeColor=#23445D;" parent="1" source="_8ZAXlefnrJj5G8Nu_vt-187" target="_8ZAXlefnrJj5G8Nu_vt-26" edge="1">
          <mxGeometry relative="1" as="geometry" />
        </mxCell>
        <mxCell id="_8ZAXlefnrJj5G8Nu_vt-187" value="" style="shape=trapezoid;perimeter=trapezoidPerimeter;whiteSpace=wrap;html=1;fixedSize=1;rotation=-180;labelBackgroundColor=none;rounded=0;labelBorderColor=none;textShadow=0;fillColor=#182E3E;strokeColor=#FFFFFF;fontColor=light-dark(#000000, #121212);" parent="1" vertex="1">
          <mxGeometry x="690" y="730" width="120" height="40" as="geometry" />
        </mxCell>
        <mxCell id="_8ZAXlefnrJj5G8Nu_vt-199" style="edgeStyle=orthogonalEdgeStyle;shape=link;rounded=0;orthogonalLoop=1;jettySize=auto;html=1;labelBorderColor=none;textShadow=0;labelBackgroundColor=none;fontColor=light-dark(#000000, #121212);strokeColor=#23445D;" parent="1" source="_8ZAXlefnrJj5G8Nu_vt-188" edge="1">
          <mxGeometry relative="1" as="geometry">
            <mxPoint x="500" y="750" as="targetPoint" />
          </mxGeometry>
        </mxCell>
        <mxCell id="_8ZAXlefnrJj5G8Nu_vt-204" style="edgeStyle=orthogonalEdgeStyle;rounded=0;orthogonalLoop=1;jettySize=auto;html=1;entryX=0.25;entryY=0;entryDx=0;entryDy=0;labelBorderColor=none;textShadow=0;labelBackgroundColor=none;fontColor=light-dark(#000000, #121212);strokeColor=#23445D;" parent="1" source="_8ZAXlefnrJj5G8Nu_vt-188" target="_8ZAXlefnrJj5G8Nu_vt-26" edge="1">
          <mxGeometry relative="1" as="geometry" />
        </mxCell>
        <mxCell id="_8ZAXlefnrJj5G8Nu_vt-188" value="" style="shape=trapezoid;perimeter=trapezoidPerimeter;whiteSpace=wrap;html=1;fixedSize=1;rotation=-180;labelBackgroundColor=none;rounded=0;labelBorderColor=none;textShadow=0;fillColor=#182E3E;strokeColor=#FFFFFF;fontColor=light-dark(#000000, #121212);" parent="1" vertex="1">
          <mxGeometry x="564" y="730" width="120" height="40" as="geometry" />
        </mxCell>
        <mxCell id="_8ZAXlefnrJj5G8Nu_vt-195" style="edgeStyle=orthogonalEdgeStyle;rounded=0;orthogonalLoop=1;jettySize=auto;html=1;exitX=1;exitY=0.75;exitDx=0;exitDy=0;entryX=0.75;entryY=1;entryDx=0;entryDy=0;labelBorderColor=none;textShadow=0;labelBackgroundColor=none;fontColor=light-dark(#000000, #121212);strokeColor=#23445D;" parent="1" source="_8ZAXlefnrJj5G8Nu_vt-190" target="_8ZAXlefnrJj5G8Nu_vt-187" edge="1">
          <mxGeometry relative="1" as="geometry">
            <Array as="points">
              <mxPoint x="560" y="650" />
              <mxPoint x="720" y="650" />
            </Array>
          </mxGeometry>
        </mxCell>
        <mxCell id="_8ZAXlefnrJj5G8Nu_vt-190" value="&lt;font style=&quot;font-size: 18px;&quot;&gt;PC&lt;/font&gt;" style="rounded=0;whiteSpace=wrap;html=1;labelBackgroundColor=none;labelBorderColor=none;textShadow=0;fillColor=#182E3E;strokeColor=#FFFFFF;fontColor=light-dark(#FFFFFF,#121212);" parent="1" vertex="1">
          <mxGeometry x="299" y="610" width="261" height="50" as="geometry" />
        </mxCell>
        <mxCell id="_8ZAXlefnrJj5G8Nu_vt-196" style="edgeStyle=orthogonalEdgeStyle;rounded=0;orthogonalLoop=1;jettySize=auto;html=1;entryX=0.75;entryY=1;entryDx=0;entryDy=0;labelBorderColor=none;textShadow=0;labelBackgroundColor=none;fontColor=light-dark(#000000, #121212);strokeColor=#23445D;" parent="1" source="_8ZAXlefnrJj5G8Nu_vt-191" target="_8ZAXlefnrJj5G8Nu_vt-188" edge="1">
          <mxGeometry relative="1" as="geometry" />
        </mxCell>
        <mxCell id="_8ZAXlefnrJj5G8Nu_vt-191" value="&lt;font style=&quot;font-size: 18px;&quot;&gt;IMM&lt;/font&gt;" style="rounded=0;whiteSpace=wrap;html=1;labelBackgroundColor=none;labelBorderColor=none;textShadow=0;fillColor=#182E3E;strokeColor=#FFFFFF;fontColor=light-dark(#FFFFFF,#121212);" parent="1" vertex="1">
          <mxGeometry x="300" y="660" width="260" height="50" as="geometry" />
        </mxCell>
        <mxCell id="_8ZAXlefnrJj5G8Nu_vt-198" value="SelectorA" style="text;html=1;align=center;verticalAlign=middle;resizable=0;points=[];autosize=1;strokeColor=none;fillColor=none;fontSize=17;labelBorderColor=none;textShadow=0;labelBackgroundColor=none;fontColor=light-dark(#000000, #121212);" parent="1" vertex="1">
          <mxGeometry x="850" y="735" width="100" height="30" as="geometry" />
        </mxCell>
        <mxCell id="_8ZAXlefnrJj5G8Nu_vt-200" value="SelectorB" style="text;html=1;align=center;verticalAlign=middle;resizable=0;points=[];autosize=1;strokeColor=none;fillColor=none;fontSize=17;labelBorderColor=none;textShadow=0;labelBackgroundColor=none;fontColor=light-dark(#000000, #121212);" parent="1" vertex="1">
          <mxGeometry x="410" y="735" width="100" height="30" as="geometry" />
        </mxCell>
        <mxCell id="_8ZAXlefnrJj5G8Nu_vt-211" value="" style="endArrow=none;html=1;rounded=0;labelBorderColor=none;textShadow=0;labelBackgroundColor=none;fontColor=light-dark(#000000, #121212);strokeColor=#23445D;" parent="1" edge="1">
          <mxGeometry width="50" height="50" relative="1" as="geometry">
            <mxPoint x="665" y="451.25" as="sourcePoint" />
            <mxPoint x="705" y="418.75" as="targetPoint" />
          </mxGeometry>
        </mxCell>
        <mxCell id="_8ZAXlefnrJj5G8Nu_vt-213" value="x32" style="text;html=1;align=center;verticalAlign=middle;resizable=0;points=[];autosize=1;strokeColor=none;fillColor=none;labelBorderColor=none;textShadow=0;labelBackgroundColor=none;fontColor=light-dark(#000000, #121212);" parent="1" vertex="1">
          <mxGeometry x="665" y="405" width="40" height="30" as="geometry" />
        </mxCell>
        <mxCell id="_8ZAXlefnrJj5G8Nu_vt-214" value="" style="endArrow=none;html=1;rounded=0;labelBorderColor=none;textShadow=0;labelBackgroundColor=none;fontColor=light-dark(#000000, #121212);strokeColor=#23445D;" parent="1" edge="1">
          <mxGeometry width="50" height="50" relative="1" as="geometry">
            <mxPoint x="590" y="546.75" as="sourcePoint" />
            <mxPoint x="630" y="514.25" as="targetPoint" />
          </mxGeometry>
        </mxCell>
        <mxCell id="_8ZAXlefnrJj5G8Nu_vt-215" value="x32" style="text;html=1;align=center;verticalAlign=middle;resizable=0;points=[];autosize=1;strokeColor=none;fillColor=none;labelBorderColor=none;textShadow=0;labelBackgroundColor=none;fontColor=light-dark(#000000, #121212);" parent="1" vertex="1">
          <mxGeometry x="590" y="503" width="40" height="30" as="geometry" />
        </mxCell>
        <mxCell id="_8ZAXlefnrJj5G8Nu_vt-218" value="" style="endArrow=none;html=1;rounded=0;labelBorderColor=none;textShadow=0;labelBackgroundColor=none;fontColor=light-dark(#000000, #121212);strokeColor=#23445D;" parent="1" edge="1">
          <mxGeometry width="50" height="50" relative="1" as="geometry">
            <mxPoint x="824" y="756.25" as="sourcePoint" />
            <mxPoint x="840" y="743.75" as="targetPoint" />
          </mxGeometry>
        </mxCell>
        <mxCell id="_8ZAXlefnrJj5G8Nu_vt-219" value="" style="endArrow=none;html=1;rounded=0;labelBorderColor=none;textShadow=0;labelBackgroundColor=none;fontColor=light-dark(#000000, #121212);strokeColor=#23445D;" parent="1" edge="1">
          <mxGeometry width="50" height="50" relative="1" as="geometry">
            <mxPoint x="249" y="600.87" as="sourcePoint" />
            <mxPoint x="279" y="569.12" as="targetPoint" />
          </mxGeometry>
        </mxCell>
        <mxCell id="_8ZAXlefnrJj5G8Nu_vt-220" value="6" style="text;html=1;align=center;verticalAlign=middle;resizable=0;points=[];autosize=1;strokeColor=none;fillColor=none;fontSize=11;labelBorderColor=none;textShadow=0;labelBackgroundColor=none;fontColor=light-dark(#000000, #121212);" parent="1" vertex="1">
          <mxGeometry x="814" y="730" width="30" height="30" as="geometry" />
        </mxCell>
        <mxCell id="_8ZAXlefnrJj5G8Nu_vt-222" value="" style="endArrow=none;html=1;rounded=0;labelBorderColor=none;textShadow=0;labelBackgroundColor=none;fontColor=light-dark(#000000, #121212);strokeColor=#23445D;" parent="1" edge="1">
          <mxGeometry width="50" height="50" relative="1" as="geometry">
            <mxPoint x="524" y="756.25" as="sourcePoint" />
            <mxPoint x="540" y="743.75" as="targetPoint" />
          </mxGeometry>
        </mxCell>
        <mxCell id="_8ZAXlefnrJj5G8Nu_vt-223" value="6" style="text;html=1;align=center;verticalAlign=middle;resizable=0;points=[];autosize=1;strokeColor=none;fillColor=none;fontSize=11;labelBorderColor=none;textShadow=0;labelBackgroundColor=none;fontColor=light-dark(#000000, #121212);" parent="1" vertex="1">
          <mxGeometry x="514" y="730" width="30" height="30" as="geometry" />
        </mxCell>
        <mxCell id="_8ZAXlefnrJj5G8Nu_vt-226" value="3" style="text;html=1;align=center;verticalAlign=middle;resizable=0;points=[];autosize=1;strokeColor=none;fillColor=none;labelBackgroundColor=none;rounded=0;labelBorderColor=none;textShadow=0;fontColor=light-dark(#000000, #121212);" parent="1" vertex="1">
          <mxGeometry x="885" y="845" width="30" height="30" as="geometry" />
        </mxCell>
        <mxCell id="_8ZAXlefnrJj5G8Nu_vt-228" value="&lt;div&gt;5&lt;/div&gt;" style="text;html=1;align=center;verticalAlign=middle;resizable=0;points=[];autosize=1;strokeColor=none;fillColor=none;labelBackgroundColor=none;rounded=0;labelBorderColor=none;textShadow=0;fontColor=light-dark(#000000, #121212);" parent="1" vertex="1">
          <mxGeometry x="885" y="1025" width="30" height="30" as="geometry" />
        </mxCell>
        <mxCell id="_8ZAXlefnrJj5G8Nu_vt-229" value="&lt;div&gt;6&lt;/div&gt;" style="text;html=1;align=center;verticalAlign=middle;resizable=0;points=[];autosize=1;strokeColor=none;fillColor=none;labelBackgroundColor=none;rounded=0;labelBorderColor=none;textShadow=0;fontColor=light-dark(#000000, #121212);" parent="1" vertex="1">
          <mxGeometry x="885" y="1265" width="30" height="30" as="geometry" />
        </mxCell>
        <mxCell id="_8ZAXlefnrJj5G8Nu_vt-239" style="edgeStyle=orthogonalEdgeStyle;rounded=0;orthogonalLoop=1;jettySize=auto;html=1;entryX=0;entryY=0.5;entryDx=0;entryDy=0;strokeColor=#23445D;" parent="1" source="_8ZAXlefnrJj5G8Nu_vt-233" target="_8ZAXlefnrJj5G8Nu_vt-167" edge="1">
          <mxGeometry relative="1" as="geometry">
            <Array as="points">
              <mxPoint x="240" y="730" />
              <mxPoint x="203" y="730" />
            </Array>
          </mxGeometry>
        </mxCell>
        <mxCell id="_8ZAXlefnrJj5G8Nu_vt-233" value="&lt;span style=&quot;font-size: 18px;&quot;&gt;GAR&lt;/span&gt;" style="rounded=0;whiteSpace=wrap;html=1;labelBackgroundColor=none;labelBorderColor=none;textShadow=0;fillColor=#182E3E;strokeColor=#FFFFFF;fontColor=light-dark(#FFFFFF,#121212);" parent="1" vertex="1">
          <mxGeometry x="135" y="745" width="165" height="50" as="geometry" />
        </mxCell>
        <mxCell id="_8ZAXlefnrJj5G8Nu_vt-241" value="Selector Load" style="text;html=1;align=center;verticalAlign=middle;resizable=0;points=[];autosize=1;strokeColor=none;fillColor=none;labelBorderColor=none;textShadow=0;labelBackgroundColor=none;fontColor=light-dark(#000000, #121212);" parent="1" vertex="1">
          <mxGeometry x="197" y="705" width="100" height="30" as="geometry" />
        </mxCell>
        <mxCell id="uVem1HTJ2gQu72BLglqx-1" value="&lt;font style=&quot;font-size: 10px;&quot;&gt;RS1&lt;/font&gt;" style="text;html=1;align=center;verticalAlign=middle;resizable=0;points=[];autosize=1;strokeColor=none;fillColor=none;fontSize=16;fontColor=light-dark(#ffffff, #ededed);" parent="1" vertex="1">
          <mxGeometry x="650" y="827.5" width="40" height="30" as="geometry" />
        </mxCell>
        <mxCell id="uVem1HTJ2gQu72BLglqx-2" value="&lt;font style=&quot;font-size: 10px;&quot;&gt;RS2&lt;/font&gt;" style="text;html=1;align=center;verticalAlign=middle;resizable=0;points=[];autosize=1;strokeColor=none;fillColor=none;fontSize=16;fontColor=light-dark(#ffffff, #ededed);" parent="1" vertex="1">
          <mxGeometry x="696" y="827.5" width="40" height="30" as="geometry" />
        </mxCell>
        <mxCell id="uVem1HTJ2gQu72BLglqx-4" value="" style="shape=flexArrow;endArrow=classic;html=1;rounded=0;fontSize=12;startSize=8;endSize=8;curved=1;" parent="1" source="_8ZAXlefnrJj5G8Nu_vt-31" edge="1">
          <mxGeometry width="50" height="50" relative="1" as="geometry">
            <mxPoint x="120" y="634" as="sourcePoint" />
            <mxPoint x="300" y="634" as="targetPoint" />
          </mxGeometry>
        </mxCell>
        <mxCell id="5gqr1cesrSrdK6Xxh4As-3" value="" style="html=1;shadow=0;dashed=0;align=center;verticalAlign=middle;shape=mxgraph.arrows2.arrow;dy=0.6;dx=40;notch=0;labelBackgroundColor=none;rounded=0;labelBorderColor=none;textShadow=0;fillColor=#182E3E;strokeColor=#FFFFFF;fontColor=light-dark(#000000, #121212);" parent="1" vertex="1">
          <mxGeometry x="560" y="617.5" width="390" height="35" as="geometry" />
        </mxCell>
        <mxCell id="5gqr1cesrSrdK6Xxh4As-4" value="2" style="text;html=1;align=center;verticalAlign=middle;resizable=0;points=[];autosize=1;strokeColor=none;fillColor=none;labelBackgroundColor=none;rounded=0;labelBorderColor=none;textShadow=0;fontColor=light-dark(#000000, #121212);" parent="1" vertex="1">
          <mxGeometry x="885" y="600" width="30" height="30" as="geometry" />
        </mxCell>
        <mxCell id="5gqr1cesrSrdK6Xxh4As-5" value="" style="shape=trapezoid;perimeter=trapezoidPerimeter;whiteSpace=wrap;html=1;fixedSize=1;rotation=90;labelBackgroundColor=none;rounded=0;labelBorderColor=none;textShadow=0;fillColor=#182E3E;strokeColor=#FFFFFF;fontColor=light-dark(#000000, #121212);" parent="1" vertex="1">
          <mxGeometry x="740" y="408.75" width="187" height="50" as="geometry" />
        </mxCell>
        <mxCell id="5gqr1cesrSrdK6Xxh4As-6" value="" style="html=1;shadow=0;dashed=0;align=center;verticalAlign=middle;shape=mxgraph.arrows2.arrow;dy=0.6;dx=40;notch=0;labelBackgroundColor=none;rounded=0;labelBorderColor=none;textShadow=0;fillColor=#182E3E;strokeColor=#FFFFFF;fontColor=light-dark(#000000, #121212);" parent="1" vertex="1">
          <mxGeometry x="560" y="416.25" width="290" height="35" as="geometry" />
        </mxCell>
        <mxCell id="5gqr1cesrSrdK6Xxh4As-8" value="" style="html=1;shadow=0;dashed=0;align=center;verticalAlign=middle;shape=mxgraph.arrows2.arrow;dy=0.6;dx=40;notch=0;labelBackgroundColor=none;rounded=0;labelBorderColor=none;textShadow=0;fillColor=#182E3E;strokeColor=#FFFFFF;fontColor=light-dark(#000000, #121212);" parent="1" vertex="1">
          <mxGeometry x="860" y="416.25" width="90" height="35" as="geometry" />
        </mxCell>
        <mxCell id="5gqr1cesrSrdK6Xxh4As-9" value="1" style="text;html=1;align=center;verticalAlign=middle;resizable=0;points=[];autosize=1;strokeColor=none;fillColor=none;labelBackgroundColor=none;rounded=0;labelBorderColor=none;textShadow=0;fontColor=light-dark(#000000, #121212);" parent="1" vertex="1">
          <mxGeometry x="890" y="405" width="30" height="30" as="geometry" />
        </mxCell>
        <mxCell id="5gqr1cesrSrdK6Xxh4As-16" style="edgeStyle=orthogonalEdgeStyle;shape=link;rounded=0;orthogonalLoop=1;jettySize=auto;html=1;labelBorderColor=none;textShadow=0;labelBackgroundColor=none;fontColor=light-dark(#000000, #121212);strokeColor=#23445D;exitX=1;exitY=0.5;exitDx=0;exitDy=0;" parent="1" source="5gqr1cesrSrdK6Xxh4As-5" edge="1">
          <mxGeometry relative="1" as="geometry">
            <mxPoint x="834" y="560" as="targetPoint" />
            <mxPoint x="890" y="520" as="sourcePoint" />
          </mxGeometry>
        </mxCell>
        <mxCell id="5gqr1cesrSrdK6Xxh4As-17" value="Selector Write" style="text;html=1;align=center;verticalAlign=middle;resizable=0;points=[];autosize=1;strokeColor=none;fillColor=none;fontSize=16;" parent="1" vertex="1">
          <mxGeometry x="783" y="555" width="120" height="30" as="geometry" />
        </mxCell>
        <mxCell id="QZm6JZJQfDxfLzlXNzP9-1" value="" style="html=1;shadow=0;dashed=0;align=center;verticalAlign=middle;shape=mxgraph.arrows2.arrow;dy=0.6;dx=40;notch=0;labelBackgroundColor=none;rounded=0;labelBorderColor=none;textShadow=0;fillColor=#182E3E;strokeColor=#FFFFFF;fontColor=light-dark(#000000, #121212);" parent="1" vertex="1">
          <mxGeometry x="827" y="937.5" width="123" height="35" as="geometry" />
        </mxCell>
        <mxCell id="QZm6JZJQfDxfLzlXNzP9-2" value="4" style="text;html=1;align=center;verticalAlign=middle;resizable=0;points=[];autosize=1;strokeColor=none;fillColor=none;" parent="1" vertex="1">
          <mxGeometry x="885" y="925" width="30" height="30" as="geometry" />
        </mxCell>
      </root>
    </mxGraphModel>
  </diagram>
</mxfile>
